<svg width="24" height="25" viewBox="0 0 24 25" fill="none" xmlns="http://www.w3.org/2000/svg">
<g id="user login" clip-path="url(#clip0_133_1636)">
<path id="Vector" d="M12 11.9048C13.1867 11.9048 14.3467 11.5557 15.3334 10.9016C16.3201 10.2476 17.0892 9.31792 17.5433 8.23026C17.9974 7.14261 18.1162 5.94578 17.8847 4.79113C17.6532 3.63648 17.0818 2.57587 16.2426 1.74341C15.4035 0.910959 14.3344 0.34405 13.1705 0.114376C12.0067 -0.115298 10.8003 0.00257908 9.7039 0.453101C8.60754 0.903622 7.67047 1.66655 7.01118 2.64542C6.35189 3.62428 6 4.77511 6 5.95238C6.00159 7.53057 6.63424 9.04367 7.75911 10.1596C8.88399 11.2756 10.4092 11.9032 12 11.9048ZM12 1.98413C12.7911 1.98413 13.5645 2.21686 14.2223 2.6529C14.8801 3.08894 15.3928 3.7087 15.6955 4.4338C15.9983 5.1589 16.0775 5.95679 15.9231 6.72655C15.7688 7.49632 15.3878 8.20339 14.8284 8.75836C14.269 9.31333 13.5563 9.69127 12.7804 9.84439C12.0044 9.99751 11.2002 9.91892 10.4693 9.61857C9.73836 9.31822 9.11365 8.8096 8.67412 8.15703C8.2346 7.50445 8 6.73723 8 5.95238C8 4.89994 8.42143 3.8906 9.17157 3.1464C9.92172 2.40221 10.9391 1.98413 12 1.98413Z" fill="#0C2D57"/>
<path id="Vector_2" d="M12 13.8889C9.61386 13.8915 7.32622 14.8331 5.63896 16.5069C3.95171 18.1808 3.00265 20.4503 3 22.8175C3 23.0806 3.10536 23.3329 3.29289 23.519C3.48043 23.705 3.73478 23.8096 4 23.8096C4.26522 23.8096 4.51957 23.705 4.70711 23.519C4.89464 23.3329 5 23.0806 5 22.8175C5 20.9757 5.7375 19.2094 7.05025 17.907C8.36301 16.6047 10.1435 15.873 12 15.873C13.8565 15.873 15.637 16.6047 16.9497 17.907C18.2625 19.2094 19 20.9757 19 22.8175C19 23.0806 19.1054 23.3329 19.2929 23.519C19.4804 23.705 19.7348 23.8096 20 23.8096C20.2652 23.8096 20.5196 23.705 20.7071 23.519C20.8946 23.3329 21 23.0806 21 22.8175C20.9974 20.4503 20.0483 18.1808 18.361 16.5069C16.6738 14.8331 14.3861 13.8915 12 13.8889Z" fill="#0C2D57"/>
</g>
<defs>
<clipPath id="clip0_133_1636">
<rect width="24" height="25" fill="white"/>
</clipPath>
</defs>
</svg>
