<svg width="26" height="26" viewBox="0 0 26 26" fill="none" xmlns="http://www.w3.org/2000/svg">
<g id="free-delivery 1">
<path id="Vector" d="M24.375 14.196V16.263C24.375 16.7778 23.9564 17.1964 23.4416 17.1964H22.4432C22.2638 15.9562 21.1952 15.0046 19.9056 15.0046C18.6212 15.0046 17.5526 15.9562 17.3706 17.1964H8.879C8.6996 15.9562 7.631 15.0046 6.344 15.0046C5.057 15.0046 3.991 15.9562 3.809 17.1964H2.561C2.0462 17.1964 1.6276 16.7778 1.6276 16.263V14.196H24.375ZM8.0574 9.20395H7.5244L7.3294 10.2128H7.8468C8.1926 10.2128 8.4786 9.97615 8.4786 9.58095C8.4812 9.34175 8.3226 9.20395 8.0574 9.20395ZM21.8426 17.5682C21.8426 18.6368 20.9742 19.5052 19.9056 19.5052C18.8344 19.5052 17.966 18.6368 17.966 17.5682C17.966 16.497 18.8344 15.6286 19.9056 15.6286C20.9742 15.6286 21.8426 16.497 21.8426 17.5682ZM20.8754 17.5682C20.8754 17.0326 20.4386 16.601 19.9082 16.601C19.3726 16.601 18.941 17.0326 18.941 17.5682C18.941 18.1012 19.3726 18.5354 19.9082 18.5354C20.4386 18.5354 20.8754 18.0986 20.8754 17.5682ZM8.281 17.5682C8.281 18.6368 7.4152 19.5052 6.344 19.5052C5.2728 19.5052 4.407 18.6368 4.407 17.5682C4.407 16.497 5.2728 15.6286 6.344 15.6286C7.4152 15.6286 8.281 16.497 8.281 17.5682ZM7.3138 17.5682C7.3138 17.0326 6.8822 16.601 6.3466 16.601C5.811 16.601 5.3794 17.0326 5.3794 17.5682C5.3794 18.1012 5.811 18.5354 6.3466 18.5354C6.8822 18.5354 7.3138 18.0986 7.3138 17.5682ZM24.375 13.6786H1.625V7.42815C1.625 6.91075 2.0462 6.49475 2.5584 6.49475H16.6738C17.1912 6.49475 17.6072 6.91335 17.6072 7.42815V8.12235H19.461C19.7886 8.12235 20.1032 8.25235 20.3346 8.48375L24.0058 12.1134C24.2398 12.3474 24.3724 12.6646 24.3724 12.9974L24.375 13.6786ZM4.94 10.1192L5.1116 9.20395H6.3856L6.4818 8.69955H4.6306L4.004 11.9288H4.5864L4.8412 10.6236H5.915L6.0112 10.1192H4.94ZM8.346 10.569V10.5612C8.8322 10.4026 9.0818 9.92415 9.0818 9.48475C9.0818 9.15195 8.918 8.90235 8.645 8.78535C8.5124 8.72555 8.3538 8.70475 8.1822 8.70475H7.0408L6.4142 11.9314H6.9992L7.2306 10.7276H7.813L8.2212 11.9314H8.8478L8.4162 10.7354C8.3772 10.6158 8.346 10.569 8.346 10.569ZM11.9262 8.69955H9.9996L9.3678 11.9288H11.3724L11.4686 11.4244H10.0516L10.218 10.556H11.3048L11.4036 10.0516H10.3168L10.4806 9.20655H11.8274L11.9262 8.69955ZM14.5314 8.69955H12.6048L11.973 11.9288H13.9776L14.0738 11.4244H12.6568L12.8258 10.556H13.9126L14.0114 10.0516H12.922L13.0858 9.20655H14.43L14.5314 8.69955ZM22.5056 11.9834L19.6326 9.24035C19.604 9.21435 19.5676 9.19875 19.5312 9.19875H18.8552C18.7746 9.19875 18.7096 9.26375 18.7096 9.34435V12.0874C18.7096 12.168 18.7746 12.233 18.8552 12.233H22.4068C22.5368 12.2356 22.6018 12.0718 22.5056 11.9834Z" fill="white"/>
</g>
</svg>
