<svg width="16" height="17" viewBox="0 0 16 17" fill="none" xmlns="http://www.w3.org/2000/svg">
<g id="phone-call 1" clip-path="url(#clip0_133_579)">
<g id="Group">
<g id="Group_2">
<path id="Vector" d="M12.645 10.4115C12.3174 10.0704 11.9223 9.88807 11.5036 9.88807C11.0882 9.88807 10.6898 10.067 10.3487 10.4081L9.2816 11.4718C9.1938 11.4246 9.106 11.3807 9.02158 11.3368C8.90001 11.276 8.7852 11.2186 8.68727 11.1578C7.6877 10.5229 6.77931 9.69559 5.90807 8.62511C5.48595 8.09156 5.20229 7.64243 4.9963 7.18654C5.27321 6.93328 5.52985 6.66988 5.77975 6.41661C5.8743 6.32206 5.96885 6.22412 6.06341 6.12957C6.77256 5.42042 6.77256 4.5019 6.06341 3.79275L5.14151 2.87085C5.03683 2.76617 4.92876 2.65811 4.82746 2.55005C4.62484 2.34068 4.4121 2.12456 4.1926 1.92194C3.86504 1.59776 3.47332 1.42554 3.06133 1.42554C2.64935 1.42554 2.25088 1.59776 1.91318 1.92194C1.90981 1.92532 1.90981 1.92532 1.90643 1.9287L0.758281 3.08698C0.326037 3.51922 0.0795227 4.04602 0.0254922 4.65724C-0.0555537 5.6433 0.234861 6.56182 0.457737 7.16291C1.0048 8.63862 1.82201 10.0063 3.04107 11.4718C4.52016 13.238 6.29979 14.6326 8.33269 15.6153C9.10938 15.9834 10.1461 16.419 11.3044 16.4933C11.3753 16.4967 11.4496 16.5001 11.5171 16.5001C12.2972 16.5001 12.9523 16.2198 13.4656 15.6626C13.469 15.6558 13.4757 15.6525 13.4791 15.6457C13.6547 15.433 13.8573 15.2405 14.0701 15.0345C14.2153 14.896 14.3638 14.7508 14.5091 14.5989C14.8434 14.251 15.019 13.8458 15.019 13.4304C15.019 13.0117 14.84 12.6099 14.4989 12.2722L12.645 10.4115ZM13.8539 13.9674C13.8506 13.9674 13.8506 13.9708 13.8539 13.9674C13.7222 14.1092 13.5872 14.2375 13.442 14.3794C13.2225 14.5887 12.9996 14.8082 12.7902 15.0547C12.4491 15.4194 12.0473 15.5917 11.5205 15.5917C11.4698 15.5917 11.4158 15.5917 11.3652 15.5883C10.3622 15.5241 9.43018 15.1324 8.73116 14.7981C6.81983 13.8728 5.14151 12.5592 3.74685 10.8944C2.59532 9.50648 1.82538 8.22326 1.31547 6.84548C1.00142 6.00463 0.886604 5.34951 0.937258 4.73153C0.971027 4.33643 1.12299 4.00887 1.40327 3.72859L2.5548 2.57706C2.72027 2.42173 2.89587 2.3373 3.06809 2.3373C3.28083 2.3373 3.45306 2.46563 3.56112 2.57369C3.56449 2.57706 3.56787 2.58044 3.57125 2.58382C3.77724 2.7763 3.9731 2.97554 4.17909 3.18828C4.28377 3.29634 4.39184 3.40441 4.4999 3.51584L5.42179 4.43774C5.77975 4.79569 5.77975 5.12663 5.42179 5.48458C5.32386 5.58251 5.22931 5.68044 5.13138 5.775C4.84772 6.06541 4.57757 6.33556 4.28377 6.59896C4.27702 6.60572 4.27027 6.60909 4.26689 6.61585C3.97648 6.90626 4.03051 7.18992 4.09129 7.3824C4.09467 7.39254 4.09804 7.40267 4.10142 7.4128C4.34118 7.99363 4.67887 8.54069 5.19216 9.19243L5.19554 9.19581C6.12757 10.344 7.11025 11.2388 8.19424 11.9243C8.33269 12.0121 8.47452 12.0831 8.6096 12.1506C8.73116 12.2114 8.84598 12.2688 8.94391 12.3296C8.95742 12.3363 8.97093 12.3465 8.98443 12.3532C9.09925 12.4106 9.20731 12.4376 9.31875 12.4376C9.59903 12.4376 9.77463 12.262 9.83204 12.2046L10.9869 11.0497C11.1018 10.9349 11.2841 10.7965 11.4969 10.7965C11.7062 10.7965 11.8784 10.9282 11.9831 11.043C11.9865 11.0464 11.9865 11.0464 11.9899 11.0497L13.8506 12.9104C14.1984 13.2549 14.1984 13.6094 13.8539 13.9674Z" fill="#5C728E"/>
<path id="Vector_2" d="M8.64673 4.30597C9.53148 4.45456 10.3352 4.87329 10.9768 5.51491C11.6184 6.15652 12.0338 6.96022 12.1857 7.84497C12.2229 8.06785 12.4154 8.22319 12.6349 8.22319C12.6619 8.22319 12.6855 8.21981 12.7125 8.21643C12.9624 8.17591 13.1279 7.93953 13.0874 7.68964C12.905 6.61916 12.3985 5.64323 11.6252 4.86992C10.8519 4.0966 9.87593 3.59007 8.80545 3.40771C8.55556 3.36719 8.32255 3.53266 8.27865 3.77917C8.23475 4.02569 8.39684 4.26545 8.64673 4.30597Z" fill="#5C728E"/>
<path id="Vector_3" d="M15.9814 7.55794C15.6808 5.79519 14.8501 4.19116 13.5737 2.91469C12.2972 1.63821 10.6931 0.807495 8.9304 0.50695C8.68389 0.46305 8.45088 0.631896 8.40698 0.87841C8.36646 1.1283 8.53192 1.36131 8.78182 1.40521C10.3555 1.67198 11.7906 2.41828 12.932 3.5563C14.0734 4.6977 14.8164 6.13288 15.0831 7.70652C15.1203 7.9294 15.3128 8.08474 15.5323 8.08474C15.5593 8.08474 15.5829 8.08136 15.6099 8.07798C15.8564 8.04084 16.0253 7.80445 15.9814 7.55794Z" fill="#5C728E"/>
</g>
</g>
</g>
<defs>
<clipPath id="clip0_133_579">
<rect width="16" height="16" fill="white" transform="translate(0 0.5)"/>
</clipPath>
</defs>
</svg>
