<svg width="16" height="17" viewBox="0 0 16 17" fill="none" xmlns="http://www.w3.org/2000/svg">
<g id="email 1">
<g id="Layer_1">
<g id="Group">
<g id="Group_2">
<path id="Vector" d="M14.0541 13.7324H1.94598C1.23247 13.7324 0.648682 13.1487 0.648682 12.4351V4.56488C0.648682 3.85136 1.23247 3.26758 1.94598 3.26758H14.0541C14.7676 3.26758 15.3514 3.85136 15.3514 4.56488V12.4568C15.3514 13.1703 14.7676 13.7324 14.0541 13.7324Z" stroke="#5C728E" stroke-miterlimit="10" stroke-linecap="round" stroke-linejoin="round"/>
</g>
<g id="Group_3">
<path id="Vector_2" d="M0.951416 3.57031L6.59466 9.66761C7.35142 10.4892 8.62709 10.4892 9.38385 9.66761L15.0271 3.57031" stroke="#5C728E" stroke-miterlimit="10" stroke-linecap="round" stroke-linejoin="round"/>
</g>
<g id="Group_4">
<g id="Group_5">
<path id="Vector_3" d="M4.12974 10.0784C3.07028 11.2243 2.44325 11.9378 1.38379 13.0838" stroke="#5C728E" stroke-miterlimit="10" stroke-linecap="round" stroke-linejoin="round"/>
</g>
<path id="Vector_4" d="M14.6162 13.0838C13.5567 11.9378 12.9297 11.2243 11.8702 10.0784" stroke="#5C728E" stroke-miterlimit="10" stroke-linecap="round" stroke-linejoin="round"/>
</g>
</g>
</g>
</g>
</svg>
