<svg width="48" height="48" viewBox="0 0 48 48" fill="none" xmlns="http://www.w3.org/2000/svg">
<g id="quote icon">
<g id="Group">
<path id="Vector" d="M9.89997 28.8599C8.91 31.3499 7.35003 33.8099 5.26502 36.18C4.60502 36.93 4.51501 38.0099 5.055 38.8499C5.47504 39.5099 6.16499 39.8699 6.91499 39.8699C7.125 39.8699 7.33503 39.855 7.54504 39.7799C11.955 38.4899 22.26 33.9149 22.545 19.2449C22.65 13.59 18.51 8.72998 13.125 8.17498C10.14 7.87496 7.17004 8.8499 4.965 10.8299C2.76004 12.8249 1.5 15.675 1.5 18.6449C1.5 23.5949 5.01005 27.93 9.89997 28.8599Z" fill="white"/>
<path id="Vector_2" d="M37.0652 8.17498C34.0951 7.87496 31.1251 8.8499 28.9202 10.8299C26.7151 12.8249 25.4551 15.675 25.4551 18.6449C25.4551 23.5949 28.9651 27.9299 33.8551 28.8599C32.8651 31.3499 31.3051 33.8099 29.2201 36.1799C28.5601 36.9299 28.4701 38.0099 29.0102 38.8499C29.4301 39.5099 30.1202 39.8699 30.8702 39.8699C31.0801 39.8699 31.2901 39.855 31.5001 39.7799C35.9101 38.4899 46.2151 33.9149 46.5001 19.2449V19.035C46.5001 13.4699 42.4052 8.72998 37.0652 8.17498Z" fill="white"/>
</g>
</g>
</svg>
